HIERARCHY
ROOT SpineBase
{
  OFFSET 0.000000 0.000000 0.000000
  CHANNELS 6 Xposition Yposition Zposition Zrotation Xrotation Yrotation
  JOINT SpineMid
  {
    OFFSET -0.000000 31.132691 0.000000
    CHANNELS 3 Zrotation Xrotation Yrotation
    JOINT SpineShoulder
    {
      OFFSET 0.043192 23.087878 -0.709529
      CHANNELS 3 Zrotation Xrotation Yrotation
      JOINT Neck
      {
        OFFSET 0.034482 7.633058 -0.551092
        CHANNELS 3 Zrotation Xrotation Yrotation
        JOINT Head
        {
          OFFSET -5.330348 12.879481 -0.206669
          CHANNELS 3 Zrotation Xrotation Yrotation
          End Site
          {
            OFFSET 0 0 0
          }
        }
      }
      JOINT ShoulderLeft
      {
        OFFSET -15.887688 -4.159843 10.801475
        CHANNELS 3 Zrotation Xrotation Yrotation
        JOINT ElbowLeft
        {
          OFFSET -4.851796 -24.306790 3.315648
          CHANNELS 3 Zrotation Xrotation Yrotation
          JOINT WristLeft
          {
            OFFSET -2.983954 -4.940846 -21.125437
            CHANNELS 3 Zrotation Xrotation Yrotation
            JOINT HandLeft
            {
              OFFSET -2.088944 -2.776504 -10.348133
              CHANNELS 3 Zrotation Xrotation Yrotation
              JOINT HandTipLeft
              {
                OFFSET 2.613156 -0.497861 -3.896073
                CHANNELS 3 Zrotation Xrotation Yrotation
                End Site
                {
                  OFFSET 0 0 0
                }
              }
              JOINT ThumbLeft
              {
                OFFSET -3.146242 1.337434 -0.303338
                CHANNELS 3 Zrotation Xrotation Yrotation
                End Site
                {
                  OFFSET 0 0 0
                }
              }
            }
          }
        }
      }
      JOINT ShoulderRight
      {
        OFFSET 12.800123 -3.083260 -9.218298
        CHANNELS 3 Zrotation Xrotation Yrotation
        JOINT ElbowRight
        {
          OFFSET -4.819754 -20.425009 -3.774104
          CHANNELS 3 Zrotation Xrotation Yrotation
          JOINT WristRight
          {
            OFFSET -20.842916 -11.033387 -10.632740
            CHANNELS 3 Zrotation Xrotation Yrotation
            JOINT HandRight
            {
              OFFSET -5.984862 -2.378039 0.516075
              CHANNELS 3 Zrotation Xrotation Yrotation
              JOINT HandTipRight
              {
                OFFSET -6.715967 -3.155083 3.894889
                CHANNELS 3 Zrotation Xrotation Yrotation
                End Site
                {
                  OFFSET 0 0 0
                }
              }
              JOINT ThumbRight
              {
                OFFSET 0.997759 -4.950953 -1.971377
                CHANNELS 3 Zrotation Xrotation Yrotation
                End Site
                {
                  OFFSET 0 0 0
                }
              }
            }
          }
        }
      }
    }
  }
  JOINT HipLeft
  {
    OFFSET -5.663819 -0.108483 -0.440222
    CHANNELS 3 Zrotation Xrotation Yrotation
    JOINT KneeLeft
    {
      OFFSET 0.414979 -34.827093 4.461462
      CHANNELS 3 Zrotation Xrotation Yrotation
      JOINT AnkleLeft
      {
        OFFSET 5.752695 -37.986028 13.096764
        CHANNELS 3 Zrotation Xrotation Yrotation
        JOINT FootLeft
        {
          OFFSET -3.026808 -7.902089 -3.795152
          CHANNELS 3 Zrotation Xrotation Yrotation
          End Site
          {
            OFFSET 0 0 0
          }
        }
      }
    }
  }
  JOINT HipRight
  {
    OFFSET 6.207887 1.948822 -6.532497
    CHANNELS 3 Zrotation Xrotation Yrotation
    JOINT KneeRight
    {
      OFFSET 6.817216 -35.436899 -3.689160
      CHANNELS 3 Zrotation Xrotation Yrotation
      JOINT AnkleRight
      {
        OFFSET 6.793013 -36.395386 8.107958
        CHANNELS 3 Zrotation Xrotation Yrotation
        JOINT FootRight
        {
          OFFSET -1.789936 -8.362518 -4.039903
          CHANNELS 3 Zrotation Xrotation Yrotation
          End Site
          {
            OFFSET 0 0 0
          }
        }
      }
    }
  }
}
MOTION
Frames: 12
Frame Time: 0.033333
-25.645762 82.553556 320.495137 0.000000 0.000000 27.165810 -0.000000 0.000000 -27.165810 -0.000000 0.000000 0.000000 -0.000000 0.000000 0.000000 0.000000 0.000000 0.000000 -0.000000 0.000000 0.000000 -0.000000 0.000000 0.000000 -0.000000 0.000000 0.000000 -0.000000 0.000000 0.000000 0.000000 0.000000 0.000000 0.000000 0.000000 0.000000 -0.000000 0.000000 0.000000 -0.000000 0.000000 0.000000 -0.000000 0.000000 0.000000 -0.000000 0.000000 0.000000 0.000000 0.000000 0.000000 0.000000 0.000000 0.000000 -0.000000 0.000000 -27.165810 -0.000000 0.000000 0.000000 -0.000000 0.000000 0.000000 0.000000 0.000000 0.000000 -0.000000 0.000000 -27.165810 -0.000000 0.000000 0.000000 -0.000000 0.000000 0.000000 0.000000 0.000000 0.000000
-26.173457 82.577819 320.546217 -0.056780 0.066018 26.819412 0.020886 -0.084535 -26.819364 -0.000000 0.000000 0.000000 -0.000000 0.000000 0.000000 0.000000 0.000000 0.000000 -0.000000 0.000000 0.000000 -0.241717 -0.379539 1.278345 0.033255 0.253100 -0.383748 -0.803468 -1.102089 0.610429 0.000000 0.000000 0.000000 0.000000 0.000000 0.000000 -0.000000 0.000000 0.000000 -0.261686 -0.823820 1.811173 0.618988 1.936302 -4.629410 -0.239817 -1.144231 2.803959 0.000000 0.000000 0.000000 0.000000 0.000000 0.000000 0.020886 -0.084535 -26.819364 -0.000000 0.000000 0.000000 0.601128 1.990077 -1.054793 0.000000 0.000000 0.000000 0.020886 -0.084535 -26.819364 -0.000000 0.000000 0.000000 1.274934 0.726019 -0.778880 0.000000 0.000000 0.000000
-26.648897 82.598603 320.585086 -0.094605 0.138658 26.513284 0.022758 -0.166307 -26.513136 -0.000000 0.000000 0.000000 0.196011 0.885170 0.367762 0.000000 0.000000 0.000000 -0.000000 0.000000 0.000000 -0.410893 -0.638924 2.187587 0.062376 0.482199 -0.700729 -1.616442 -2.243374 1.492380 0.000000 0.000000 0.000000 0.000000 0.000000 0.000000 -0.000000 0.000000 0.000000 -0.449839 -1.455601 3.192267 1.130425 3.243131 -7.830531 0.862606 -1.015463 4.572306 0.000000 0.000000 0.000000 0.000000 0.000000 0.000000 0.646287 -0.841464 -26.401501 -0.858713 0.327430 -0.103698 1.010944 3.643826 -1.891222 0.000000 0.000000 0.000000 0.906380 -0.645580 -26.617912 -1.004683 0.032524 0.111322 2.329932 1.328075 -1.435158 0.000000 0.000000 0.000000
-27.072083 82.615909 320.611746 -0.113465 0.217905 26.250110 0.005386 -0.245617 -26.249882 -0.000000 0.000000 0.000000 0.250342 1.265389 0.524587 0.000000 0.000000 0.000000 0.946566 -0.044606 0.138616 -1.461247 -0.726767 2.591245 0.083186 0.684312 -0.941174 -2.369506 -3.362395 2.562530 0.000000 0.000000 0.000000 0.000000 0.000000 0.000000 -0.000000 0.000000 0.000000 -0.579465 -1.894595 4.152903 1.502142 4.098127 -9.973427 1.319596 -1.010992 5.573837 0.000000 0.000000 0.000000 0.000000 0.000000 0.000000 0.881270 -1.167129 -26.091571 -1.191918 0.442248 -0.142913 1.224299 4.990835 -2.511571 0.000000 0.000000 0.000000 1.218571 -0.932168 -26.397198 -1.391872 0.075438 0.160701 3.164255 1.815176 -1.964114 0.000000 0.000000 0.000000
-27.443016 82.629735 320.626196 -0.113356 0.303746 26.032031 -0.031450 -0.322679 -26.031819 -0.000000 0.000000 0.000000 0.276199 1.604571 0.664160 0.000000 0.000000 0.000000 1.149002 -0.010690 0.159296 -1.702149 -0.770288 2.743812 0.092160 0.857532 -1.098194 -3.000418 -4.394355 3.740090 0.000000 0.000000 0.000000 0.000000 0.000000 0.000000 0.877518 0.176371 -0.205432 -1.530461 -2.323336 4.902316 1.721372 4.594819 -11.248127 1.720838 -0.838783 6.016186 0.000000 0.000000 0.000000 0.000000 0.000000 0.000000 1.056703 -1.433354 -25.833797 -0.507340 0.234828 0.104817 0.312922 6.341684 -3.210328 0.000000 0.000000 0.000000 1.435940 -1.197544 -26.216427 -1.702828 0.136329 0.206102 3.778197 2.195056 -2.362674 0.000000 0.000000 0.000000
-27.761694 82.640083 320.628435 -0.094284 0.396160 25.860590 -0.087957 -0.397612 -25.860569 -0.000000 0.000000 0.000000 0.273927 1.903053 0.786941 0.000000 0.000000 0.000000 1.297617 0.047435 0.167395 -1.825564 -0.712881 2.541376 0.086354 1.000708 -1.167109 -3.463241 -5.281638 4.957040 0.000000 0.000000 0.000000 0.000000 0.000000 0.000000 0.988332 0.323627 -0.262182 -1.677889 -2.528517 5.096748 1.782242 4.781442 -11.752698 2.038652 -0.568398 5.996922 0.000000 0.000000 0.000000 0.000000 0.000000 0.000000 1.172079 -1.642339 -25.630327 -0.492960 0.295956 0.156550 -0.088258 7.134660 -3.486485 0.000000 0.000000 0.000000 1.557842 -1.443399 -26.078071 -1.937830 0.215367 0.247588 4.172478 2.473813 -2.628928 0.000000 0.000000 0.000000
-28.008280 82.649826 320.500554 -0.055475 0.492237 25.517715 -0.161990 -0.468118 -25.518138 -0.000000 0.000000 0.000000 0.300424 2.135422 0.882386 0.000000 0.000000 0.000000 1.440974 0.232301 0.147692 -1.684966 -0.515668 1.067580 0.165723 1.163672 -1.496405 -4.415787 -7.109636 7.524986 0.000000 0.000000 0.000000 0.000000 0.000000 0.000000 1.042662 0.565813 -0.331742 -1.611820 -2.009476 3.585085 0.892236 3.713897 -9.157493 3.153989 0.601942 4.305517 0.000000 0.000000 0.000000 0.000000 0.000000 0.000000 1.305507 -1.773916 -25.254441 -0.585630 0.437540 0.193018 -1.834185 9.058956 -3.406541 0.000000 0.000000 0.000000 1.639027 -1.696889 -25.771657 -1.779229 1.042613 0.508027 3.942826 1.606766 -2.837519 0.000000 0.000000 0.000000
-28.200981 82.649951 320.455927 0.021160 0.595854 25.413900 -0.274834 -0.529111 -25.415279 -0.000000 0.000000 0.000000 0.357040 2.419611 0.998752 0.000000 0.000000 0.000000 1.585234 0.375949 0.136447 -1.586158 -0.372030 -0.146798 -0.061404 1.865882 -1.106458 -5.876805 -10.796318 9.503206 0.000000 0.000000 0.000000 0.000000 0.000000 0.000000 1.078511 0.805118 -0.397224 -1.704533 -2.134483 3.473159 0.959634 3.730032 -9.328612 2.943070 0.768906 3.696342 0.000000 0.000000 0.000000 0.000000 0.000000 0.000000 1.214145 -1.852937 -25.146129 -0.337110 0.476276 0.285765 -2.407927 7.918494 -2.943896 0.000000 0.000000 0.000000 1.478693 -1.893929 -25.695546 -1.690320 1.301631 0.582232 3.727324 1.715020 -2.873033 0.000000 0.000000 0.000000
-28.374595 82.634775 320.496644 0.071731 0.681275 25.512262 -0.358178 -0.583946 -25.514513 -0.000000 0.000000 0.000000 0.410467 2.666629 1.099599 0.000000 0.000000 0.000000 1.628365 0.377032 0.141988 -1.465506 0.251465 -1.199591 -0.233316 1.525792 -0.317001 -5.152096 -9.790473 11.166757 0.000000 0.000000 0.000000 0.000000 0.000000 0.000000 1.107601 1.061347 -0.465646 -1.776012 -3.149045 5.030538 1.967313 5.310232 -13.214421 1.960347 -0.371908 5.946754 0.000000 0.000000 0.000000 0.000000 0.000000 0.000000 1.142139 -1.855291 -25.245165 -0.054533 0.466321 0.384398 -3.034609 7.433369 -2.691563 0.000000 0.000000 0.000000 1.324541 -2.040875 -25.812004 -1.521001 1.509780 0.650009 3.331316 1.901711 -2.862716 0.000000 0.000000 0.000000
-28.516068 82.597715 320.656990 0.173818 0.758326 25.838932 -0.486973 -0.606742 -25.842661 -0.000000 0.000000 0.000000 0.132366 2.763341 1.142657 0.000000 0.000000 0.000000 1.680135 0.494098 0.123765 -1.713733 0.873643 -0.776274 0.023188 0.682741 -0.787527 -3.041834 -6.242191 6.947059 0.000000 0.000000 0.000000 0.000000 0.000000 0.000000 1.195629 1.173163 -0.510308 -1.436368 -4.288689 6.732465 2.730665 6.579026 -15.890320 0.586057 -1.312042 6.871711 0.000000 0.000000 0.000000 0.000000 0.000000 0.000000 1.027852 -1.733968 -25.578518 0.233482 0.346521 0.476075 -3.381127 6.665167 -2.458365 0.000000 0.000000 0.000000 1.123399 -2.094848 -26.144837 -1.303162 1.642841 0.704165 2.838242 1.975855 -2.789884 0.000000 0.000000 0.000000
-28.690934 82.577458 320.736014 0.208637 0.869361 25.953158 -0.016330 0.037252 -25.951234 -0.041731 0.024366 0.001519 -0.328817 1.906671 1.163158 0.000000 0.000000 0.000000 -0.136000 -0.920061 -0.006751 -0.318870 1.949365 0.178148 0.467489 -0.338297 -1.849085 -1.579167 -3.627575 3.708184 0.000000 0.000000 0.000000 0.000000 0.000000 0.000000 0.847796 0.576566 -0.538573 -1.972513 -4.655584 7.452293 4.276360 6.193077 -16.130509 -1.775754 -2.522203 6.351543 0.000000 0.000000 0.000000 0.000000 0.000000 0.000000 1.113787 -1.875973 -25.664421 0.158068 0.374331 0.495092 -2.422047 2.813223 -1.693221 0.000000 0.000000 0.000000 0.954147 -2.298913 -26.283400 -1.128091 1.888460 0.778191 2.427551 2.430497 -2.838256 0.000000 0.000000 0.000000
-28.889065 82.597799 320.844021 0.142983 0.945253 26.188248 0.027933 0.018977 -26.186246 -0.011826 0.036215 0.002879 -0.578698 1.789836 1.150103 0.000000 0.000000 0.000000 -0.854503 -2.887965 0.246107 -0.925523 3.689976 5.313117 0.353116 -1.809555 -1.425921 6.532076 7.307212 -2.687710 0.000000 0.000000 0.000000 0.000000 0.000000 0.000000 0.607827 0.691621 -0.546075 -2.679291 -4.526922 7.535041 5.591086 5.231300 -15.056113 -6.243942 -5.340959 5.530903 0.000000 0.000000 0.000000 0.000000 0.000000 0.000000 1.409448 -1.982176 -25.856253 -0.048265 0.218920 0.474685 -4.434439 7.717906 -2.387372 0.000000 0.000000 0.000000 0.906528 -2.484808 -26.534702 -0.954403 2.083309 0.842942 2.251923 2.860279 -2.994603 0.000000 0.000000 0.000000
